<!-- 24 QingZhi App Icons · Jade #80A89C + Gold #C8A873 + Ink #2B2B2B -->
<!-- Stroke 1.6, rounded line caps, viewBox 24×24 -->
<svg xmlns="http://www.w3.org/2000/svg" width="0" height="0" style="position:absolute" id="qz-icon-sprite">
  <defs>
    <symbol id="qz-i-note" viewBox="0 0 24 24"><g fill="none" stroke="currentColor" stroke-width="1.6" stroke-linecap="round" stroke-linejoin="round"><path d="M14 3H6a2 2 0 0 0-2 2v14a2 2 0 0 0 2 2h12a2 2 0 0 0 2-2V9z"/><polyline points="14 3 14 9 20 9"/><line x1="8" y1="13" x2="16" y2="13"/><line x1="8" y1="17" x2="13" y2="17"/></g></symbol>
    <symbol id="qz-i-notebook" viewBox="0 0 24 24"><g fill="none" stroke="currentColor" stroke-width="1.6" stroke-linecap="round" stroke-linejoin="round"><path d="M5 3h12a2 2 0 0 1 2 2v14a2 2 0 0 1-2 2H5z"/><line x1="5" y1="3" x2="5" y2="21"/><line x1="9" y1="8" x2="15" y2="8"/><line x1="9" y1="12" x2="15" y2="12"/></g></symbol>
    <symbol id="qz-i-folder" viewBox="0 0 24 24"><g fill="none" stroke="currentColor" stroke-width="1.6" stroke-linecap="round" stroke-linejoin="round"><path d="M3 7a2 2 0 0 1 2-2h4l2 2h8a2 2 0 0 1 2 2v9a2 2 0 0 1-2 2H5a2 2 0 0 1-2-2z"/></g></symbol>
    <symbol id="qz-i-tag" viewBox="0 0 24 24"><g fill="none" stroke="currentColor" stroke-width="1.6" stroke-linecap="round" stroke-linejoin="round"><path d="M20.6 13.4 13 21l-9-9V4h8z"/><circle cx="8" cy="8" r="1.4" fill="currentColor"/></g></symbol>
    <symbol id="qz-i-graph" viewBox="0 0 24 24"><g fill="none" stroke="currentColor" stroke-width="1.6" stroke-linecap="round" stroke-linejoin="round"><circle cx="6" cy="6" r="2"/><circle cx="18" cy="6" r="2"/><circle cx="12" cy="13" r="2.4"/><circle cx="6" cy="19" r="2"/><circle cx="18" cy="19" r="2"/><line x1="7.4" y1="7.4" x2="10.6" y2="11.4"/><line x1="16.6" y1="7.4" x2="13.4" y2="11.4"/><line x1="7.4" y1="17.4" x2="10.6" y2="14.4"/><line x1="16.6" y1="17.4" x2="13.4" y2="14.4"/></g></symbol>
    <symbol id="qz-i-search" viewBox="0 0 24 24"><g fill="none" stroke="currentColor" stroke-width="1.6" stroke-linecap="round" stroke-linejoin="round"><circle cx="11" cy="11" r="7"/><line x1="21" y1="21" x2="16.5" y2="16.5"/></g></symbol>
    <symbol id="qz-i-calendar" viewBox="0 0 24 24"><g fill="none" stroke="currentColor" stroke-width="1.6" stroke-linecap="round" stroke-linejoin="round"><rect x="3" y="5" width="18" height="16" rx="2"/><line x1="3" y1="10" x2="21" y2="10"/><line x1="8" y1="3" x2="8" y2="7"/><line x1="16" y1="3" x2="16" y2="7"/><circle cx="12" cy="15" r="1.2" fill="currentColor"/></g></symbol>
    <symbol id="qz-i-bell" viewBox="0 0 24 24"><g fill="none" stroke="currentColor" stroke-width="1.6" stroke-linecap="round" stroke-linejoin="round"><path d="M18 16V11a6 6 0 0 0-12 0v5l-2 2h16z"/><path d="M10 21a2 2 0 0 0 4 0"/></g></symbol>
    <symbol id="qz-i-todo" viewBox="0 0 24 24"><g fill="none" stroke="currentColor" stroke-width="1.6" stroke-linecap="round" stroke-linejoin="round"><rect x="3" y="4" width="18" height="16" rx="2"/><polyline points="7 10 9 12 13 8"/><line x1="15" y1="10" x2="18" y2="10"/><line x1="15" y1="15" x2="18" y2="15"/><line x1="7" y1="15" x2="11" y2="15"/></g></symbol>
    <symbol id="qz-i-quick" viewBox="0 0 24 24"><g fill="none" stroke="currentColor" stroke-width="1.6" stroke-linecap="round" stroke-linejoin="round"><path d="M4 4h13l3 3v13H4z"/><line x1="8" y1="10" x2="16" y2="10"/><line x1="8" y1="14" x2="14" y2="14"/><path d="M16.5 18.5l2-2 1 1-2 2z" fill="currentColor"/></g></symbol>
    <symbol id="qz-i-attach" viewBox="0 0 24 24"><g fill="none" stroke="currentColor" stroke-width="1.6" stroke-linecap="round" stroke-linejoin="round"><path d="M21 12.5 13 20a5 5 0 0 1-7-7l9-9a3.5 3.5 0 0 1 5 5l-9 9a2 2 0 0 1-3-3l8-8"/></g></symbol>
    <symbol id="qz-i-image" viewBox="0 0 24 24"><g fill="none" stroke="currentColor" stroke-width="1.6" stroke-linecap="round" stroke-linejoin="round"><rect x="3" y="4" width="18" height="16" rx="2"/><circle cx="8.5" cy="9.5" r="1.5"/><polyline points="21 15 16 10 5 20"/></g></symbol>
    <symbol id="qz-i-video" viewBox="0 0 24 24"><g fill="none" stroke="currentColor" stroke-width="1.6" stroke-linecap="round" stroke-linejoin="round"><rect x="3" y="5" width="14" height="14" rx="2"/><polygon points="17 9 22 6 22 18 17 15" fill="currentColor" fill-opacity="0.15"/></g></symbol>
    <symbol id="qz-i-ai" viewBox="0 0 24 24"><g fill="none" stroke="currentColor" stroke-width="1.6" stroke-linecap="round" stroke-linejoin="round"><path d="M12 2 L13.5 8.5 L20 10 L13.5 11.5 L12 18 L10.5 11.5 L4 10 L10.5 8.5 Z"/><circle cx="18.5" cy="18.5" r="1" fill="currentColor"/><circle cx="5.5" cy="18" r="0.8" fill="currentColor"/></g></symbol>
    <symbol id="qz-i-sync" viewBox="0 0 24 24"><g fill="none" stroke="currentColor" stroke-width="1.6" stroke-linecap="round" stroke-linejoin="round"><path d="M4 12a8 8 0 0 1 13.66-5.66L21 9"/><polyline points="21 4 21 9 16 9"/><path d="M20 12a8 8 0 0 1-13.66 5.66L3 15"/><polyline points="3 20 3 15 8 15"/></g></symbol>
    <symbol id="qz-i-export" viewBox="0 0 24 24"><g fill="none" stroke="currentColor" stroke-width="1.6" stroke-linecap="round" stroke-linejoin="round"><path d="M4 17v2a2 2 0 0 0 2 2h12a2 2 0 0 0 2-2v-2"/><polyline points="8 9 12 5 16 9"/><line x1="12" y1="5" x2="12" y2="16"/></g></symbol>
    <symbol id="qz-i-settings" viewBox="0 0 24 24"><g fill="none" stroke="currentColor" stroke-width="1.6" stroke-linecap="round" stroke-linejoin="round"><circle cx="12" cy="12" r="3"/><path d="M19.4 15a1.6 1.6 0 0 0 .3 1.8l.1.1a2 2 0 1 1-2.8 2.8l-.1-.1a1.6 1.6 0 0 0-1.8-.3 1.6 1.6 0 0 0-1 1.5V21a2 2 0 0 1-4 0v-.1a1.6 1.6 0 0 0-1-1.5 1.6 1.6 0 0 0-1.8.3l-.1.1a2 2 0 1 1-2.8-2.8l.1-.1a1.6 1.6 0 0 0 .3-1.8 1.6 1.6 0 0 0-1.5-1H3a2 2 0 0 1 0-4h.1a1.6 1.6 0 0 0 1.5-1 1.6 1.6 0 0 0-.3-1.8l-.1-.1a2 2 0 1 1 2.8-2.8l.1.1a1.6 1.6 0 0 0 1.8.3h0a1.6 1.6 0 0 0 1-1.5V3a2 2 0 0 1 4 0v.1a1.6 1.6 0 0 0 1 1.5 1.6 1.6 0 0 0 1.8-.3l.1-.1a2 2 0 1 1 2.8 2.8l-.1.1a1.6 1.6 0 0 0-.3 1.8h0a1.6 1.6 0 0 0 1.5 1H21a2 2 0 0 1 0 4h-.1a1.6 1.6 0 0 0-1.5 1z"/></g></symbol>
    <symbol id="qz-i-theme" viewBox="0 0 24 24"><g fill="none" stroke="currentColor" stroke-width="1.6" stroke-linecap="round" stroke-linejoin="round"><circle cx="12" cy="12" r="9"/><path d="M12 3a6 9 0 0 0 0 18z" fill="currentColor" fill-opacity="0.18"/><circle cx="9" cy="8" r="0.8" fill="currentColor"/><circle cx="15" cy="14" r="0.8" fill="currentColor"/></g></symbol>
    <symbol id="qz-i-profile" viewBox="0 0 24 24"><g fill="none" stroke="currentColor" stroke-width="1.6" stroke-linecap="round" stroke-linejoin="round"><circle cx="12" cy="9" r="4"/><path d="M4 21a8 8 0 0 1 16 0"/></g></symbol>
    <symbol id="qz-i-reading" viewBox="0 0 24 24"><g fill="none" stroke="currentColor" stroke-width="1.6" stroke-linecap="round" stroke-linejoin="round"><path d="M2 5h7a4 4 0 0 1 4 4v12a3 3 0 0 0-3-3H2z"/><path d="M22 5h-7a4 4 0 0 0-4 4v12a3 3 0 0 1 3-3h8z"/></g></symbol>
    <symbol id="qz-i-inspector" viewBox="0 0 24 24"><g fill="none" stroke="currentColor" stroke-width="1.6" stroke-linecap="round" stroke-linejoin="round"><circle cx="11" cy="11" r="7"/><line x1="21" y1="21" x2="16.5" y2="16.5"/><line x1="8" y1="11" x2="14" y2="11"/><line x1="11" y1="8" x2="11" y2="14"/></g></symbol>
    <symbol id="qz-i-command" viewBox="0 0 24 24"><g fill="none" stroke="currentColor" stroke-width="1.6" stroke-linecap="round" stroke-linejoin="round"><path d="M18 3a3 3 0 0 0-3 3v12a3 3 0 0 0 3 3 3 3 0 0 0 3-3 3 3 0 0 0-3-3H6a3 3 0 0 0-3 3 3 3 0 0 0 3 3 3 3 0 0 0 3-3V6a3 3 0 0 0-3-3 3 3 0 0 0-3 3 3 3 0 0 0 3 3h12a3 3 0 0 0 3-3 3 3 0 0 0-3-3z"/></g></symbol>
    <symbol id="qz-i-more" viewBox="0 0 24 24"><g fill="none" stroke="currentColor" stroke-width="1.6" stroke-linecap="round" stroke-linejoin="round"><circle cx="5" cy="12" r="1.4" fill="currentColor"/><circle cx="12" cy="12" r="1.4" fill="currentColor"/><circle cx="19" cy="12" r="1.4" fill="currentColor"/></g></symbol>
  </defs>
</svg>
